<?xml version="1.0" encoding="UTF-8" ?>
<!DOCTYPE svg PUBLIC "-//W3C//DTD SVG 1.1//EN" "http://www.w3.org/Graphics/SVG/1.1/DTD/svg11.dtd">
<svg width="1310pt" height="930pt" viewBox="0 0 1310 930" version="1.1" xmlns="http://www.w3.org/2000/svg">
<g id="#2b2b2bff">
</g>
<g id="#ed0406ff">
<path fill="#ed0406" opacity="1.00" d=" M 324.54 268.48 C 330.73 266.20 337.74 268.17 342.60 272.41 C 350.47 279.18 357.06 287.28 364.76 294.23 C 369.53 298.46 373.55 303.44 378.08 307.91 C 395.65 324.67 412.34 342.33 429.70 359.31 C 433.97 363.59 437.72 368.92 438.50 375.05 C 438.31 382.48 434.33 390.24 427.31 393.35 C 421.05 396.61 413.24 395.45 407.61 391.45 C 401.52 387.34 397.09 381.30 391.04 377.15 C 384.56 385.20 378.84 393.84 372.33 401.87 C 370.79 401.34 369.22 400.87 367.76 400.15 C 366.75 397.75 367.27 394.90 368.72 392.79 C 373.44 385.58 379.62 379.30 383.52 371.56 C 384.65 369.23 382.51 367.43 381.07 365.92 C 368.27 353.39 355.60 340.73 342.95 328.05 C 340.94 326.10 339.02 324.01 336.68 322.46 C 333.76 323.23 331.47 325.37 329.05 327.06 C 323.17 331.64 317.05 335.89 310.75 339.87 C 292.16 353.31 273.18 366.20 254.43 379.44 C 251.19 381.73 247.55 383.66 245.06 386.83 C 255.74 398.16 267.19 408.78 277.99 420.01 C 289.26 431.08 300.47 442.21 311.49 453.52 C 313.86 455.82 316.08 458.37 318.97 460.05 C 325.62 452.56 330.93 443.97 337.00 436.01 C 339.74 432.45 342.15 428.51 345.63 425.61 C 347.67 425.16 349.77 425.45 351.84 425.50 C 351.78 428.33 351.44 431.28 349.63 433.59 C 345.89 438.85 342.02 444.02 338.41 449.38 C 334.17 455.37 329.08 460.74 325.17 466.98 C 328.37 470.39 331.98 473.41 334.99 477.01 C 336.74 478.96 335.70 481.82 334.78 483.92 C 331.69 490.32 327.82 496.31 324.70 502.69 C 323.08 505.73 321.80 509.05 319.43 511.61 C 316.28 513.38 312.78 510.62 310.44 508.59 C 300.12 498.23 290.02 487.61 278.98 478.00 C 274.14 473.56 269.55 468.82 264.24 464.91 C 236.12 492.57 208.42 520.64 180.49 548.49 C 175.76 552.88 171.83 558.77 165.37 560.73 C 160.34 562.39 155.14 563.49 150.09 565.10 C 145.04 566.65 139.78 568.46 134.42 567.58 C 132.65 565.75 133.13 562.98 133.35 560.70 C 134.24 555.47 135.87 550.39 136.77 545.15 C 138.22 538.53 138.81 531.02 144.08 526.10 C 164.39 505.74 184.74 485.41 205.10 465.09 C 214.77 455.08 225.06 445.66 234.39 435.32 C 229.35 430.44 223.87 426.04 219.03 420.96 C 209.81 411.86 200.96 402.35 191.10 393.92 C 189.14 392.18 187.56 390.07 186.02 387.97 C 190.80 381.42 198.45 378.26 205.13 374.11 C 209.47 371.55 213.59 368.61 218.03 366.22 C 220.05 365.09 222.95 364.53 224.78 366.30 C 229.59 370.47 233.58 375.47 238.06 379.97 C 250.86 371.93 262.77 362.58 275.43 354.32 C 293.51 341.16 312.38 329.07 329.95 315.21 C 323.51 308.22 315.20 302.32 311.73 293.13 C 307.78 283.25 314.38 271.14 324.54 268.48 M 326.60 276.71 C 322.86 278.27 319.31 281.75 319.46 286.08 C 318.87 291.32 322.75 295.41 326.01 298.97 C 351.94 325.05 378.03 350.97 404.00 377.00 C 407.84 380.80 411.68 385.40 417.27 386.44 C 420.32 386.71 424.16 387.08 426.26 384.32 C 428.24 381.65 429.72 378.47 430.13 375.15 C 428.48 367.78 421.90 363.21 416.95 358.06 C 391.41 332.25 365.46 306.85 340.03 280.95 C 336.56 277.54 331.47 275.20 326.60 276.71 M 216.90 376.96 C 210.96 380.66 205.05 384.41 198.93 387.82 C 200.24 389.57 201.56 391.32 203.03 392.94 C 219.15 409.85 236.97 425.02 253.47 441.53 C 258.91 446.77 264.00 452.37 269.70 457.33 C 276.76 463.24 282.79 470.25 289.88 476.12 C 298.24 484.45 306.62 492.77 315.07 501.00 C 319.54 494.61 323.10 487.66 326.72 480.77 C 313.14 467.19 299.68 453.49 285.92 440.09 C 268.66 422.68 251.41 405.26 233.92 388.07 C 229.87 384.12 226.30 379.64 221.85 376.13 C 220.36 374.58 218.39 376.29 216.90 376.96 M 231.96 450.96 C 204.93 477.60 178.36 504.70 151.35 531.36 C 149.30 533.32 147.80 535.82 147.23 538.62 C 145.70 545.01 144.36 551.45 143.17 557.92 C 148.70 556.68 154.16 555.11 159.60 553.53 C 166.28 551.74 170.55 545.92 175.40 541.45 C 197.00 519.71 218.75 498.12 240.39 476.42 C 246.27 470.30 252.89 464.85 257.96 457.99 C 252.47 452.26 246.74 446.75 240.93 441.34 C 237.97 444.57 235.03 447.83 231.96 450.96 Z" />
<path fill="#ed0406" opacity="1.00" d=" M 351.81 416.16 C 353.93 411.44 357.72 407.47 361.98 404.61 C 363.79 405.30 365.44 406.31 367.13 407.25 C 365.17 412.70 361.78 417.62 357.54 421.55 C 354.56 424.18 350.59 419.14 351.81 416.16 Z" />
</g>
<g id="#010101ff">
<path fill="#010101" opacity="1.00" d=" M 458.22 294.76 C 461.41 294.83 464.61 294.94 467.80 295.06 C 468.57 324.03 468.13 353.02 468.27 382.00 C 468.11 440.74 468.62 499.49 467.89 558.23 C 465.04 558.61 462.18 559.07 459.30 558.94 C 457.95 556.92 458.01 554.39 457.90 552.07 C 457.97 498.71 457.72 445.35 458.09 392.00 C 458.27 359.59 457.72 327.17 458.22 294.76 Z" />
</g>
<g id="#d8d8d8ff">
<path fill="#d8d8d8" opacity="1.00" d=" M 536.26 310.07 C 535.85 307.37 538.51 305.68 540.95 305.96 C 554.98 305.68 569.03 305.89 583.07 306.04 C 593.97 306.51 606.03 308.88 613.62 317.39 C 623.89 328.59 621.85 348.63 609.23 357.24 C 601.55 362.32 592.20 364.48 583.07 364.48 C 575.92 364.64 568.78 364.55 561.64 364.57 C 561.67 370.36 561.97 376.14 561.81 381.93 C 562.04 384.01 560.16 385.97 558.05 385.63 C 551.72 385.66 545.36 385.96 539.05 385.46 C 535.91 385.02 536.24 381.46 536.18 379.10 C 536.35 356.09 536.09 333.07 536.26 310.07 M 561.76 324.14 C 561.71 331.49 561.69 338.84 561.80 346.19 C 567.55 346.19 573.31 346.30 579.06 346.08 C 583.04 345.76 587.57 345.61 590.60 342.61 C 595.06 338.39 594.25 330.24 589.33 326.70 C 586.34 324.64 582.59 324.26 579.07 324.20 C 573.30 324.13 567.53 324.19 561.76 324.14 Z" />
<path fill="#d8d8d8" opacity="1.00" d=" M 628.26 306.23 C 644.19 305.57 660.15 306.09 676.10 305.92 C 678.31 305.98 681.80 305.71 682.43 308.50 C 682.91 313.78 682.49 319.10 682.32 324.40 C 677.51 325.87 672.44 325.58 667.49 325.55 C 667.40 339.15 667.44 352.74 667.44 366.34 C 671.25 366.36 675.08 366.23 678.89 366.53 C 680.42 366.64 682.58 367.38 682.44 369.27 C 682.69 373.76 682.72 378.28 682.44 382.77 C 682.09 385.73 678.59 386.61 676.07 386.42 C 661.14 386.35 646.20 386.53 631.28 386.29 C 627.00 386.29 627.01 381.17 627.10 378.07 C 627.46 374.57 626.31 370.45 628.36 367.39 C 632.56 365.58 637.34 366.71 641.79 366.42 C 641.99 352.88 641.17 339.29 642.33 325.79 C 637.43 325.51 632.43 325.87 627.65 324.54 C 627.20 318.47 626.27 312.13 628.26 306.23 Z" />
<path fill="#d8d8d8" opacity="1.00" d=" M 695.18 311.90 C 695.22 309.77 695.44 306.38 698.15 306.09 C 704.11 305.64 710.10 305.98 716.08 305.86 C 718.29 306.03 721.00 305.54 722.69 307.36 C 726.30 310.83 728.84 315.21 731.69 319.29 C 737.14 327.47 743.05 335.34 748.27 343.67 C 750.20 346.66 752.09 349.70 754.32 352.50 C 755.13 338.04 754.20 323.53 754.86 309.07 C 755.02 306.11 758.68 306.04 760.92 305.95 C 766.52 306.00 772.19 305.49 777.76 306.31 C 780.40 306.74 779.90 309.95 780.08 311.92 C 780.19 334.30 780.07 356.68 780.12 379.06 C 780.05 380.88 780.16 382.76 779.60 384.52 C 778.06 386.53 775.29 386.20 773.06 386.35 C 767.38 386.30 761.68 386.63 756.02 386.15 C 751.82 385.65 749.87 381.42 747.62 378.40 C 738.61 365.52 729.96 352.39 720.91 339.55 C 720.19 353.93 721.05 368.35 720.51 382.73 C 720.54 385.09 718.21 386.55 716.05 386.43 C 710.07 386.50 704.06 386.72 698.10 386.24 C 695.24 385.63 695.25 382.38 695.21 380.08 C 695.18 357.35 695.18 334.63 695.18 311.90 Z" />
<path fill="#d8d8d8" opacity="1.00" d=" M 1032.50 454.11 C 1040.94 453.07 1049.65 454.31 1057.71 456.91 C 1067.57 460.58 1077.24 468.21 1079.21 479.08 C 1079.82 481.73 1078.97 485.57 1075.82 486.04 C 1071.57 486.73 1067.24 486.34 1062.96 486.39 C 1060.42 486.23 1057.36 486.56 1055.49 484.50 C 1051.95 480.80 1049.36 475.67 1044.14 474.08 C 1037.31 472.30 1029.22 472.84 1023.80 477.81 C 1018.49 482.60 1016.94 490.16 1017.31 497.03 C 1017.00 504.70 1019.93 513.10 1026.73 517.26 C 1031.19 520.32 1036.86 519.79 1041.99 519.45 C 1048.22 518.62 1052.24 513.41 1055.60 508.61 C 1057.33 505.71 1060.97 505.65 1063.96 505.54 C 1068.23 505.50 1072.56 505.24 1076.79 506.01 C 1078.57 506.54 1080.83 507.82 1080.47 510.03 C 1080.23 517.83 1075.63 524.89 1069.64 529.63 C 1061.08 536.58 1049.79 538.94 1039.02 539.36 C 1029.84 538.99 1020.35 538.28 1012.04 533.96 C 1002.89 529.74 995.95 521.36 993.07 511.76 C 990.89 505.76 991.11 499.29 991.18 493.02 C 991.12 484.48 994.14 476.02 999.18 469.17 C 1007.14 459.18 1020.04 454.61 1032.50 454.11 Z" />
<path fill="#d8d8d8" opacity="1.00" d=" M 763.48 454.71 C 774.04 454.10 785.05 453.27 795.19 456.94 C 805.38 460.54 814.44 468.19 818.35 478.43 C 822.57 489.70 822.57 502.41 818.72 513.78 C 815.07 523.97 806.47 531.91 796.42 535.65 C 784.32 540.18 770.88 540.27 758.40 537.38 C 746.50 534.64 735.70 526.47 730.90 515.10 C 727.33 507.27 727.09 498.51 727.68 490.07 C 728.81 481.40 732.12 472.70 738.63 466.63 C 745.27 460.03 754.24 455.98 763.48 454.71 M 768.49 473.74 C 763.56 475.01 759.04 478.23 756.85 482.89 C 753.65 488.68 753.99 495.53 754.38 501.91 C 754.96 510.07 760.87 518.02 769.21 519.37 C 775.11 519.84 781.73 520.35 786.73 516.53 C 792.78 512.51 795.02 504.94 795.34 498.03 C 795.62 490.76 793.88 482.79 788.39 477.64 C 783.00 472.90 775.23 472.50 768.49 473.74 Z" />
<path fill="#d8d8d8" opacity="1.00" d=" M 536.72 457.69 C 539.14 456.10 542.18 456.58 544.93 456.41 C 558.52 456.41 572.12 456.02 585.70 456.56 C 594.90 456.83 604.35 459.48 611.42 465.59 C 621.89 474.80 623.27 492.51 614.11 503.10 C 607.87 510.99 597.61 514.25 587.91 514.95 C 579.19 515.40 570.45 515.39 561.72 515.26 C 561.75 521.12 562.00 526.99 561.78 532.84 C 561.86 535.20 559.23 536.76 557.09 536.55 C 551.71 536.64 546.33 536.68 540.96 536.56 C 538.52 536.66 535.88 534.56 536.18 531.97 C 536.15 508.95 536.19 485.93 536.16 462.91 C 536.20 461.16 536.18 459.37 536.72 457.69 M 561.78 474.79 C 561.75 482.18 561.70 489.58 561.74 496.98 C 568.43 496.86 575.14 497.22 581.83 496.78 C 585.84 496.54 590.19 494.98 592.27 491.30 C 594.83 487.02 593.78 481.16 590.12 477.85 C 587.19 475.02 582.87 474.85 579.04 474.78 C 573.29 474.78 567.53 474.84 561.78 474.79 Z" />
<path fill="#d8d8d8" opacity="1.00" d=" M 632.33 458.42 C 633.30 455.65 636.66 456.48 638.92 456.27 C 653.36 456.42 667.82 456.01 682.26 456.53 C 691.08 456.73 700.09 459.31 706.91 465.09 C 713.95 471.22 717.64 481.87 713.47 490.65 C 711.17 496.57 705.28 499.72 699.75 502.03 C 705.37 506.66 709.47 512.79 713.03 519.07 C 715.99 524.34 719.62 529.32 721.41 535.16 C 719.37 535.92 717.29 536.72 715.08 536.63 C 709.41 536.60 703.75 536.70 698.09 536.52 C 695.29 536.60 693.17 534.44 691.82 532.23 C 687.94 526.01 684.90 519.30 680.84 513.20 C 679.22 510.59 675.89 510.17 673.11 509.93 C 667.79 509.68 662.47 509.81 657.16 509.89 C 657.20 517.28 657.25 524.67 657.29 532.07 C 657.54 534.12 655.81 536.37 653.69 536.39 C 647.84 536.73 641.97 536.58 636.12 536.44 C 633.75 536.49 631.46 534.55 631.81 532.05 C 631.49 510.37 631.81 488.68 631.69 466.99 C 631.75 464.13 631.47 461.19 632.33 458.42 M 657.23 474.70 C 657.18 480.30 657.15 485.90 657.24 491.51 C 663.84 491.43 670.45 491.51 677.05 491.40 C 680.80 491.40 684.96 490.41 687.35 487.29 C 690.30 482.86 687.40 475.78 681.94 475.25 C 673.75 474.23 665.46 475.09 657.23 474.70 Z" />
<path fill="#d8d8d8" opacity="1.00" d=" M 861.44 460.08 C 861.10 457.05 864.61 456.21 866.96 456.33 C 873.44 456.32 880.07 455.67 886.42 457.33 C 887.05 473.49 886.57 489.69 886.61 505.86 C 886.77 513.87 884.95 522.35 879.50 528.48 C 873.47 534.96 864.48 537.51 855.95 538.45 C 848.33 538.67 840.70 538.71 833.09 538.54 C 831.04 538.71 829.44 536.75 829.43 534.83 C 829.14 530.30 829.17 525.74 829.43 521.21 C 829.47 519.71 830.66 518.63 831.77 517.79 C 837.51 516.49 843.24 518.60 848.99 518.59 C 853.52 518.68 858.36 516.30 860.15 511.96 C 861.95 507.53 861.29 502.65 861.39 498.00 C 861.41 485.36 861.32 472.72 861.44 460.08 Z" />
<path fill="#d8d8d8" opacity="1.00" d=" M 903.68 460.25 C 903.51 457.82 905.71 456.05 908.05 456.36 C 930.71 456.23 953.38 456.32 976.05 456.31 C 978.09 456.35 981.43 456.53 981.53 459.24 C 981.98 463.73 981.90 468.29 981.49 472.78 C 981.35 475.53 978.34 476.49 976.01 476.38 C 960.26 476.39 944.51 476.31 928.76 476.33 C 928.76 479.66 928.73 483.00 928.74 486.34 C 940.16 486.44 951.59 486.38 963.02 486.40 C 965.27 486.27 967.31 487.31 969.32 488.22 C 969.23 493.22 969.76 498.28 968.96 503.24 C 968.75 505.64 965.87 505.67 964.05 505.78 C 952.28 506.07 940.50 505.73 928.73 505.94 C 928.83 509.68 928.84 513.43 928.84 517.18 C 940.23 517.22 951.62 517.16 963.01 517.20 C 968.81 517.25 974.72 516.03 980.43 517.59 C 982.34 520.32 981.64 523.88 981.85 527.02 C 981.66 530.21 982.41 534.22 979.59 536.51 C 967.74 537.01 955.86 536.55 944.00 536.69 C 930.97 536.60 917.95 536.88 904.93 536.57 C 904.07 534.52 903.27 532.38 903.43 530.12 C 903.58 506.83 903.26 483.53 903.68 460.25 Z" />
<path fill="#d8d8d8" opacity="1.00" d=" M 1087.85 456.39 C 1112.27 456.22 1136.68 456.31 1161.10 456.26 C 1163.31 456.42 1166.59 455.85 1167.48 458.57 C 1168.45 462.31 1168.05 466.26 1168.00 470.10 C 1167.78 471.92 1168.05 474.18 1166.47 475.49 C 1164.09 476.36 1161.51 476.28 1159.03 476.31 C 1152.58 476.28 1146.13 476.32 1139.70 476.18 C 1139.64 494.80 1139.72 513.42 1139.75 532.03 C 1140.05 534.29 1138.34 536.86 1135.91 536.67 C 1129.96 536.79 1124.00 536.82 1118.06 536.66 C 1115.66 536.79 1113.87 534.38 1114.25 532.11 C 1114.25 513.54 1114.32 494.97 1114.24 476.39 C 1106.51 476.30 1098.77 476.49 1091.04 476.35 C 1088.68 476.47 1086.64 474.54 1086.29 472.28 C 1085.15 467.02 1085.29 461.24 1087.85 456.39 Z" />
<path fill="#d8d8d8" opacity="1.00" d=" M 226.57 588.57 C 227.71 588.45 228.85 588.35 229.99 588.25 C 236.86 597.19 242.53 606.97 248.64 616.43 C 248.93 607.14 248.77 597.84 248.81 588.54 C 249.70 588.53 251.47 588.49 252.35 588.48 C 252.07 599.64 252.87 610.84 251.92 621.97 C 249.89 621.74 247.59 621.49 246.56 619.45 C 241.15 611.37 236.22 602.94 230.34 595.18 C 230.22 603.91 230.18 612.64 230.31 621.37 C 229.31 621.43 227.31 621.54 226.31 621.59 C 226.37 610.58 226.02 599.56 226.57 588.57 Z" />
<path fill="#d8d8d8" opacity="1.00" d=" M 351.48 588.33 C 352.30 588.36 353.95 588.40 354.77 588.43 C 355.15 596.59 354.46 604.79 355.42 612.92 C 355.60 615.62 357.61 618.14 360.43 618.32 C 363.98 618.71 367.98 619.15 371.19 617.21 C 373.54 615.68 373.56 612.59 373.71 610.10 C 373.91 602.95 373.78 595.80 373.85 588.65 C 375.26 588.64 376.68 588.64 378.11 588.65 C 378.05 597.46 378.81 606.40 377.00 615.08 C 376.39 618.66 373.04 621.00 369.59 621.37 C 365.24 621.83 360.59 622.22 356.44 620.54 C 352.43 618.73 351.27 614.02 351.25 610.01 C 351.16 602.78 350.91 595.54 351.48 588.33 Z" />
<path fill="#d8d8d8" opacity="1.00" d=" M 707.90 588.36 C 709.28 588.48 710.75 588.33 712.09 588.82 C 716.00 593.58 718.88 599.08 721.98 604.39 C 725.49 599.96 728.11 594.92 731.43 590.37 C 732.36 588.94 735.71 586.83 735.85 589.83 C 732.71 596.07 727.62 601.16 724.60 607.47 C 723.90 612.11 724.46 616.85 724.25 621.53 C 722.97 621.59 721.70 621.64 720.43 621.70 C 720.00 616.06 721.63 609.75 718.24 604.76 C 714.79 599.29 710.89 594.10 707.90 588.36 Z" />
<path fill="#d8d8d8" opacity="1.00" d=" M 132.32 589.31 C 136.74 588.34 141.38 588.39 145.84 588.99 C 151.42 590.10 154.67 595.74 155.14 601.05 C 155.59 606.89 155.60 613.74 151.22 618.22 C 147.00 622.42 140.52 621.82 135.08 621.50 C 131.11 621.34 127.35 619.01 125.63 615.40 C 123.46 610.66 123.34 605.25 123.95 600.16 C 124.64 595.50 127.35 590.38 132.32 589.31 M 134.44 591.73 C 129.61 592.38 127.92 597.74 127.61 601.92 C 127.39 606.66 127.33 611.90 130.02 616.03 C 133.70 619.95 139.83 618.80 144.63 618.33 C 149.88 617.54 151.25 611.52 151.39 607.07 C 151.50 602.01 151.48 595.48 146.56 592.55 C 142.76 590.96 138.45 591.47 134.44 591.73 Z" />
<path fill="#d8d8d8" opacity="1.00" d=" M 161.48 588.66 C 167.65 588.54 173.86 588.26 180.03 588.79 C 184.06 589.19 186.80 593.13 186.78 597.01 C 186.99 601.13 187.08 606.68 182.71 608.76 C 177.24 610.74 171.28 610.21 165.56 610.26 C 165.50 614.01 165.52 617.77 165.57 621.53 C 164.16 621.52 162.75 621.52 161.34 621.53 C 161.52 610.57 161.26 599.62 161.48 588.66 M 165.61 591.69 C 165.47 596.68 165.51 601.68 165.47 606.68 C 170.31 607.15 175.41 607.77 180.08 606.05 C 183.20 604.30 182.66 600.15 182.60 597.13 C 182.68 594.50 180.81 591.76 178.03 591.64 C 173.90 591.32 169.74 591.57 165.61 591.69 Z" />
<path fill="#d8d8d8" opacity="1.00" d=" M 194.81 591.81 C 199.03 587.71 205.50 588.52 210.86 588.98 C 218.96 589.86 221.28 599.63 220.30 606.42 C 211.69 606.83 203.07 606.40 194.47 606.72 C 195.25 610.32 194.82 615.33 198.69 617.28 C 205.03 620.30 211.88 617.71 218.34 616.67 C 218.42 617.46 218.59 619.05 218.67 619.84 C 212.05 621.35 205.02 622.45 198.34 620.80 C 192.63 619.00 190.62 612.44 190.65 607.04 C 190.71 601.81 190.73 595.69 194.81 591.81 M 198.28 593.26 C 195.06 595.59 195.18 599.88 195.07 603.43 C 202.21 603.52 209.35 603.53 216.49 603.33 C 215.90 599.25 215.64 593.41 210.80 592.10 C 206.72 591.37 201.90 590.80 198.28 593.26 Z" />
<path fill="#d8d8d8" opacity="1.00" d=" M 289.36 589.34 C 294.21 588.14 299.38 588.46 304.26 589.38 C 306.07 589.44 306.86 591.14 307.87 592.38 C 301.82 593.07 295.51 590.10 289.65 592.53 C 286.22 593.86 286.28 598.41 287.74 601.20 C 293.23 603.74 299.67 603.14 305.10 605.90 C 308.69 607.91 309.46 612.63 308.31 616.29 C 306.55 619.70 302.78 621.49 299.04 621.48 C 293.81 621.60 288.24 621.76 283.39 619.51 C 283.06 618.82 282.42 617.43 282.09 616.74 C 288.91 617.27 295.97 620.28 302.71 617.68 C 305.74 616.38 304.92 612.26 304.39 609.69 C 298.91 605.58 290.94 607.81 285.49 603.55 C 281.22 599.31 283.45 590.84 289.36 589.34 Z" />
<path fill="#d8d8d8" opacity="1.00" d=" M 323.28 589.10 C 327.69 588.45 332.28 588.45 336.65 589.36 C 342.72 591.32 344.93 598.27 345.21 604.04 C 345.26 609.96 344.12 617.25 338.23 620.20 C 333.47 622.21 328.02 621.84 323.00 621.16 C 319.16 620.79 316.01 617.77 314.75 614.24 C 312.99 609.38 313.03 604.04 313.90 599.01 C 314.74 594.26 318.25 589.68 323.28 589.10 M 324.40 591.76 C 320.85 592.18 318.13 595.12 317.84 598.66 C 317.26 604.48 316.55 611.06 319.74 616.28 C 323.79 619.50 329.61 619.13 334.42 618.20 C 338.72 617.52 340.77 612.97 340.78 609.03 C 340.87 603.59 341.91 596.74 337.03 592.93 C 333.20 590.90 328.57 591.34 324.40 591.76 Z" />
<path fill="#d8d8d8" opacity="1.00" d=" M 384.56 588.55 C 390.39 588.54 396.23 588.41 402.05 588.69 C 405.92 588.69 409.29 592.14 409.49 595.95 C 409.71 599.82 409.83 604.17 407.37 607.43 C 406.03 608.55 404.37 609.19 402.84 609.98 C 405.18 614.60 409.02 618.02 413.16 621.01 C 411.19 621.25 409.12 621.85 407.18 621.19 C 403.07 618.50 401.39 613.46 397.59 610.48 C 394.53 610.08 391.43 610.35 388.36 610.39 C 388.32 614.08 388.35 617.78 388.31 621.49 C 387.37 621.54 385.48 621.65 384.54 621.70 C 384.50 610.65 384.63 599.60 384.56 588.55 M 388.31 591.73 C 388.26 596.90 388.25 602.07 388.45 607.23 C 393.13 607.05 397.88 607.18 402.49 606.25 C 405.12 604.95 405.50 601.61 405.45 599.00 C 405.37 596.52 405.28 593.32 402.86 591.92 C 398.04 591.25 393.15 591.68 388.31 591.73 Z" />
<path fill="#d8d8d8" opacity="1.00" d=" M 415.83 600.04 C 416.38 595.01 419.74 589.78 425.06 588.99 C 431.13 588.36 437.71 588.08 443.23 591.15 C 439.96 593.96 435.75 591.59 432.00 591.65 C 428.22 591.27 423.57 591.81 421.53 595.48 C 418.92 599.84 419.33 605.21 419.81 610.07 C 420.34 613.18 421.68 616.90 425.09 617.81 C 430.83 619.80 436.76 617.64 442.55 617.11 C 442.53 617.85 442.50 619.34 442.48 620.08 C 436.82 621.68 430.81 622.04 425.00 621.19 C 420.97 620.69 417.82 617.32 416.71 613.55 C 415.42 609.18 415.44 604.54 415.83 600.04 Z" />
<path fill="#d8d8d8" opacity="1.00" d=" M 450.18 593.14 C 452.41 589.52 457.02 588.68 460.95 588.63 C 465.36 588.57 470.60 588.64 473.73 592.26 C 477.10 595.93 476.89 601.24 477.50 605.88 C 468.88 607.64 459.98 606.05 451.25 606.81 C 451.50 610.61 451.85 615.44 455.76 617.35 C 461.26 619.87 467.63 618.76 473.00 616.44 C 474.07 617.21 475.15 618.00 476.22 618.80 C 470.37 621.95 463.42 621.83 456.98 621.29 C 451.29 620.77 447.97 614.99 447.49 609.78 C 447.09 604.17 446.72 597.96 450.18 593.14 M 451.24 603.38 C 458.44 603.52 465.65 603.48 472.86 603.37 C 472.66 600.30 472.98 596.75 470.66 594.35 C 467.29 590.68 461.60 591.24 457.19 592.16 C 452.22 593.27 451.59 599.21 451.24 603.38 Z" />
<path fill="#d8d8d8" opacity="1.00" d=" M 558.34 589.32 C 563.79 588.47 569.73 587.99 574.99 590.01 C 580.53 593.05 582.10 600.13 581.80 605.99 C 581.58 611.44 580.10 618.16 574.54 620.53 C 569.02 622.14 562.93 622.18 557.41 620.58 C 550.70 617.70 549.80 609.32 550.16 602.94 C 550.01 597.39 552.62 591.05 558.34 589.32 M 559.34 592.20 C 554.00 594.37 554.30 601.21 554.26 606.01 C 554.26 610.59 555.01 617.15 560.40 618.38 C 564.90 619.00 569.96 619.43 574.05 617.06 C 577.80 614.35 577.52 609.13 577.69 605.01 C 577.72 600.67 577.53 595.20 573.43 592.63 C 569.00 590.94 563.90 591.18 559.34 592.20 Z" />
<path fill="#d8d8d8" opacity="1.00" d=" M 588.57 588.71 C 594.72 588.56 600.89 588.38 607.04 588.78 C 611.15 588.90 613.69 593.15 613.55 596.94 C 613.84 601.37 613.74 607.25 608.79 609.13 C 603.40 610.38 597.78 610.17 592.27 610.27 C 592.28 614.08 592.25 617.89 592.26 621.71 C 591.34 621.70 589.50 621.70 588.58 621.69 C 588.33 610.70 588.58 599.70 588.57 588.71 M 592.31 591.52 C 592.24 596.74 592.21 601.97 592.41 607.19 C 597.27 607.10 602.29 607.66 607.01 606.21 C 609.84 604.05 609.62 600.10 609.28 596.95 C 608.95 595.18 608.64 593.11 607.05 592.02 C 602.21 591.07 597.21 591.58 592.31 591.52 Z" />
<path fill="#d8d8d8" opacity="1.00" d=" M 617.71 601.94 C 618.11 596.73 620.56 590.50 626.20 589.21 C 630.85 588.33 635.83 588.26 640.40 589.62 C 646.46 592.68 647.58 600.21 647.34 606.33 C 638.73 606.94 630.09 606.47 621.47 606.67 C 622.09 610.36 621.60 615.46 625.70 617.26 C 632.14 620.52 639.13 617.43 645.72 616.63 C 645.46 621.08 640.32 620.90 637.02 621.39 C 631.64 621.58 624.89 622.58 620.97 618.01 C 617.05 613.68 617.51 607.36 617.71 601.94 M 624.04 594.07 C 621.88 596.67 621.83 600.26 621.47 603.46 C 628.81 603.49 636.15 603.33 643.50 603.48 C 643.00 599.30 642.62 593.55 637.78 592.15 C 633.27 591.13 627.70 590.70 624.04 594.07 Z" />
<path fill="#d8d8d8" opacity="1.00" d=" M 653.50 588.53 C 654.42 588.53 656.26 588.52 657.18 588.52 C 663.46 597.22 668.72 606.62 675.27 615.13 C 675.63 606.27 675.21 597.40 675.47 588.54 C 676.77 588.57 678.07 588.61 679.38 588.65 C 679.41 599.70 679.51 610.75 679.32 621.80 C 677.17 621.67 674.57 621.83 673.43 619.59 C 667.79 611.39 662.70 602.80 656.86 594.73 C 656.54 603.68 656.75 612.64 656.70 621.60 C 655.49 621.57 654.29 621.54 653.10 621.53 C 652.61 610.55 652.37 599.48 653.50 588.53 Z" />
<path fill="#d8d8d8" opacity="1.00" d=" M 746.33 589.36 C 750.77 588.30 755.44 588.45 759.95 588.94 C 766.00 589.89 769.41 596.28 769.58 601.93 C 769.75 607.39 769.68 613.61 765.94 617.99 C 761.50 622.26 754.77 621.81 749.08 621.51 C 744.55 621.38 740.65 618.07 739.17 613.90 C 737.20 608.21 737.13 601.84 739.12 596.16 C 740.22 592.89 742.85 590.01 746.33 589.36 M 747.35 592.21 C 741.12 594.75 742.37 602.67 742.33 608.07 C 741.99 612.28 743.66 617.58 748.38 618.43 C 752.87 618.90 757.97 619.47 762.02 617.02 C 766.23 613.33 765.51 607.05 765.45 602.01 C 765.21 597.94 763.61 592.61 758.97 591.81 C 755.13 591.49 751.06 590.98 747.35 592.21 Z" />
<path fill="#d8d8d8" opacity="1.00" d=" M 775.62 588.64 C 776.53 588.62 778.37 588.58 779.29 588.56 C 779.49 595.96 779.24 603.38 779.64 610.77 C 779.91 613.58 780.69 617.24 783.90 618.01 C 787.41 618.98 791.34 619.04 794.77 617.68 C 797.17 616.88 798.14 614.19 798.39 611.90 C 798.92 604.26 798.24 596.58 798.85 588.96 C 799.72 588.74 801.47 588.29 802.34 588.07 C 802.95 595.66 802.77 603.30 802.47 610.91 C 802.38 615.06 800.33 619.67 796.09 620.98 C 791.49 622.07 786.52 622.06 781.94 620.94 C 777.31 619.58 775.82 614.37 775.66 610.08 C 775.43 602.93 775.45 595.78 775.62 588.64 Z" />
<path fill="#d8d8d8" opacity="1.00" d=" M 507.48 607.40 C 511.57 607.26 515.66 607.26 519.75 607.45 C 519.64 608.46 519.53 609.48 519.43 610.51 C 515.19 610.66 510.94 610.66 506.71 610.32 C 506.90 609.59 507.29 608.13 507.48 607.40 Z" />
</g>
</svg>
